<mxfile host="Electron" modified="2024-09-29T01:44:53.738Z" agent="Mozilla/5.0 (X11; Linux x86_64) AppleWebKit/537.36 (KHTML, like Gecko) draw.io/24.2.5 Chrome/120.0.6099.109 Electron/28.1.0 Safari/537.36" etag="wfh0WABpfechafcMJRys" version="24.2.5" type="device">
  <diagram name="Page-1" id="-_D5WjnKtxtIa1I8JLLl">
    <mxGraphModel dx="1499" dy="914" grid="1" gridSize="10" guides="1" tooltips="1" connect="1" arrows="1" fold="1" page="1" pageScale="1" pageWidth="850" pageHeight="1100" math="0" shadow="0">
      <root>
        <mxCell id="0" />
        <mxCell id="1" parent="0" />
        <mxCell id="rzbahE_k7BbH063DakpK-10" value="" style="group" vertex="1" connectable="0" parent="1">
          <mxGeometry x="40" y="40" width="350" height="360" as="geometry" />
        </mxCell>
        <mxCell id="rzbahE_k7BbH063DakpK-8" value="" style="rounded=0;whiteSpace=wrap;html=1;" vertex="1" parent="rzbahE_k7BbH063DakpK-10">
          <mxGeometry width="349.99999999999994" height="360" as="geometry" />
        </mxCell>
        <mxCell id="rzbahE_k7BbH063DakpK-1" value="Email:" style="fillColor=none;strokeColor=none;align=left;fontSize=14;" vertex="1" parent="rzbahE_k7BbH063DakpK-10">
          <mxGeometry width="260" height="40" relative="1" as="geometry">
            <mxPoint x="60" y="70" as="offset" />
          </mxGeometry>
        </mxCell>
        <mxCell id="rzbahE_k7BbH063DakpK-2" value="admin@mail.com" style="html=1;shadow=0;dashed=0;shape=mxgraph.bootstrap.rrect;rSize=5;fillColor=none;strokeColor=#999999;align=left;spacing=15;fontSize=14;fontColor=#6C767D;" vertex="1" parent="rzbahE_k7BbH063DakpK-10">
          <mxGeometry width="260" height="30" relative="1" as="geometry">
            <mxPoint x="60" y="110" as="offset" />
          </mxGeometry>
        </mxCell>
        <mxCell id="rzbahE_k7BbH063DakpK-3" value="We&#39;ll never share your email with anyone else." style="fillColor=none;strokeColor=none;align=left;spacing=2;fontSize=12;fontColor=#999999;" vertex="1" parent="rzbahE_k7BbH063DakpK-10">
          <mxGeometry width="260" height="30" relative="1" as="geometry">
            <mxPoint x="60" y="140" as="offset" />
          </mxGeometry>
        </mxCell>
        <mxCell id="rzbahE_k7BbH063DakpK-4" value="Password:" style="fillColor=none;strokeColor=none;align=left;fontSize=14;" vertex="1" parent="rzbahE_k7BbH063DakpK-10">
          <mxGeometry width="260" height="40" relative="1" as="geometry">
            <mxPoint x="60" y="170" as="offset" />
          </mxGeometry>
        </mxCell>
        <mxCell id="rzbahE_k7BbH063DakpK-5" value="************" style="html=1;shadow=0;dashed=0;shape=mxgraph.bootstrap.rrect;rSize=5;fillColor=none;strokeColor=#999999;align=left;spacing=15;fontSize=14;fontColor=#6C767D;" vertex="1" parent="rzbahE_k7BbH063DakpK-10">
          <mxGeometry width="260" height="30" relative="1" as="geometry">
            <mxPoint x="60" y="210" as="offset" />
          </mxGeometry>
        </mxCell>
        <mxCell id="rzbahE_k7BbH063DakpK-6" value="Check me out" style="html=1;shadow=0;dashed=0;shape=mxgraph.bootstrap.rrect;rSize=2;fillColor=#EDEDED;strokeColor=#999999;align=left;fontSize=14;fontColor=#000000;labelPosition=right;verticalLabelPosition=middle;verticalAlign=middle;spacingLeft=5;spacingTop=-2;gradientColor=#DEDEDE;" vertex="1" parent="rzbahE_k7BbH063DakpK-10">
          <mxGeometry width="10" height="10" relative="1" as="geometry">
            <mxPoint x="60" y="260" as="offset" />
          </mxGeometry>
        </mxCell>
        <mxCell id="rzbahE_k7BbH063DakpK-7" value="Sign in" style="html=1;shadow=0;dashed=0;shape=mxgraph.bootstrap.rrect;rSize=5;fillColor=#0085FC;strokeColor=none;align=center;fontSize=14;fontColor=#FFFFFF;" vertex="1" parent="rzbahE_k7BbH063DakpK-10">
          <mxGeometry width="70" height="40" relative="1" as="geometry">
            <mxPoint x="60" y="290" as="offset" />
          </mxGeometry>
        </mxCell>
        <mxCell id="rzbahE_k7BbH063DakpK-9" value="FORM ADMIN LOGIN" style="text;html=1;align=center;verticalAlign=middle;whiteSpace=wrap;rounded=0;" vertex="1" parent="rzbahE_k7BbH063DakpK-10">
          <mxGeometry x="10.294117647058822" y="10.588235294117647" width="149.26470588235293" height="31.764705882352942" as="geometry" />
        </mxCell>
        <mxCell id="rzbahE_k7BbH063DakpK-21" value="" style="group" vertex="1" connectable="0" parent="1">
          <mxGeometry x="450" y="40" width="350" height="430" as="geometry" />
        </mxCell>
        <mxCell id="rzbahE_k7BbH063DakpK-20" value="" style="rounded=0;whiteSpace=wrap;html=1;" vertex="1" parent="rzbahE_k7BbH063DakpK-21">
          <mxGeometry width="350" height="430" as="geometry" />
        </mxCell>
        <mxCell id="rzbahE_k7BbH063DakpK-11" value="Nama:" style="fillColor=none;strokeColor=none;align=left;fontSize=14;fontColor=#212529;" vertex="1" parent="rzbahE_k7BbH063DakpK-21">
          <mxGeometry x="45" y="50" width="260" height="40" as="geometry" />
        </mxCell>
        <mxCell id="rzbahE_k7BbH063DakpK-12" value="Joe Doe" style="html=1;shadow=0;dashed=0;shape=mxgraph.bootstrap.rrect;rSize=5;fillColor=none;strokeColor=#999999;align=left;spacing=15;fontSize=14;fontColor=#6C767D;" vertex="1" parent="rzbahE_k7BbH063DakpK-21">
          <mxGeometry width="260" height="30" relative="1" as="geometry">
            <mxPoint x="45" y="90" as="offset" />
          </mxGeometry>
        </mxCell>
        <mxCell id="rzbahE_k7BbH063DakpK-13" value="Alamat:" style="fillColor=none;strokeColor=none;align=left;fontSize=14;fontColor=#212529;" vertex="1" parent="rzbahE_k7BbH063DakpK-21">
          <mxGeometry width="260" height="40" relative="1" as="geometry">
            <mxPoint x="45" y="130" as="offset" />
          </mxGeometry>
        </mxCell>
        <mxCell id="rzbahE_k7BbH063DakpK-14" value="Yogyakarta" style="html=1;shadow=0;dashed=0;shape=mxgraph.bootstrap.rrect;rSize=5;fillColor=none;strokeColor=#999999;align=left;spacing=15;fontSize=14;fontColor=#6C767D;" vertex="1" parent="rzbahE_k7BbH063DakpK-21">
          <mxGeometry width="260" height="30" relative="1" as="geometry">
            <mxPoint x="45" y="170" as="offset" />
          </mxGeometry>
        </mxCell>
        <mxCell id="rzbahE_k7BbH063DakpK-15" value="Kode Pos:" style="fillColor=none;strokeColor=none;align=left;fontSize=14;fontColor=#212529;" vertex="1" parent="rzbahE_k7BbH063DakpK-21">
          <mxGeometry x="45" y="210" width="260" height="40" as="geometry" />
        </mxCell>
        <mxCell id="rzbahE_k7BbH063DakpK-16" value="123456" style="html=1;shadow=0;dashed=0;shape=mxgraph.bootstrap.rrect;rSize=5;fillColor=none;strokeColor=#999999;align=left;spacing=15;fontSize=14;fontColor=#6C767D;" vertex="1" parent="rzbahE_k7BbH063DakpK-21">
          <mxGeometry x="45" y="250" width="260" height="30" as="geometry" />
        </mxCell>
        <mxCell id="rzbahE_k7BbH063DakpK-17" value="Email:" style="fillColor=none;strokeColor=none;align=left;fontSize=14;fontColor=#212529;" vertex="1" parent="rzbahE_k7BbH063DakpK-21">
          <mxGeometry x="45" y="290" width="260" height="40" as="geometry" />
        </mxCell>
        <mxCell id="rzbahE_k7BbH063DakpK-18" value="joe.doe@mail.com" style="html=1;shadow=0;dashed=0;shape=mxgraph.bootstrap.rrect;rSize=5;fillColor=none;strokeColor=#999999;align=left;spacing=15;fontSize=14;fontColor=#6C767D;" vertex="1" parent="rzbahE_k7BbH063DakpK-21">
          <mxGeometry x="45" y="330" width="260" height="30" as="geometry" />
        </mxCell>
        <mxCell id="rzbahE_k7BbH063DakpK-19" value="Submit" style="rounded=1;fillColor=#0057D8;strokeColor=none;html=1;whiteSpace=wrap;fontColor=#ffffff;align=center;verticalAlign=middle;fontStyle=0;fontSize=12;sketch=0;" vertex="1" parent="rzbahE_k7BbH063DakpK-21">
          <mxGeometry x="219" y="380" width="86" height="33" as="geometry" />
        </mxCell>
        <mxCell id="rzbahE_k7BbH063DakpK-23" value="FORM PELAMAR" style="text;html=1;align=center;verticalAlign=middle;whiteSpace=wrap;rounded=0;" vertex="1" parent="rzbahE_k7BbH063DakpK-21">
          <mxGeometry x="15.00411764705882" y="9.998235294117643" width="149.26470588235293" height="31.764705882352942" as="geometry" />
        </mxCell>
        <mxCell id="rzbahE_k7BbH063DakpK-39" value="" style="group" vertex="1" connectable="0" parent="1">
          <mxGeometry x="850" y="40" width="350" height="280" as="geometry" />
        </mxCell>
        <mxCell id="rzbahE_k7BbH063DakpK-26" value="" style="rounded=0;whiteSpace=wrap;html=1;fontStyle=4" vertex="1" parent="rzbahE_k7BbH063DakpK-39">
          <mxGeometry width="350" height="280" as="geometry" />
        </mxCell>
        <mxCell id="rzbahE_k7BbH063DakpK-27" value="Nama Pekerjaan:" style="fillColor=none;strokeColor=none;align=left;fontSize=14;fontColor=#212529;" vertex="1" parent="rzbahE_k7BbH063DakpK-39">
          <mxGeometry x="45" y="50" width="260" height="40" as="geometry" />
        </mxCell>
        <mxCell id="rzbahE_k7BbH063DakpK-28" value="Backend" style="html=1;shadow=0;dashed=0;shape=mxgraph.bootstrap.rrect;rSize=5;fillColor=none;strokeColor=#999999;align=left;spacing=15;fontSize=14;fontColor=#6C767D;" vertex="1" parent="rzbahE_k7BbH063DakpK-39">
          <mxGeometry width="260" height="30" relative="1" as="geometry">
            <mxPoint x="45" y="90" as="offset" />
          </mxGeometry>
        </mxCell>
        <mxCell id="rzbahE_k7BbH063DakpK-29" value="Status" style="fillColor=none;strokeColor=none;align=left;fontSize=14;fontColor=#212529;" vertex="1" parent="rzbahE_k7BbH063DakpK-39">
          <mxGeometry width="260" height="40" relative="1" as="geometry">
            <mxPoint x="45" y="130" as="offset" />
          </mxGeometry>
        </mxCell>
        <mxCell id="rzbahE_k7BbH063DakpK-30" value="aktif" style="html=1;shadow=0;dashed=0;shape=mxgraph.bootstrap.rrect;rSize=5;fillColor=none;strokeColor=#999999;align=left;spacing=15;fontSize=14;fontColor=#6C767D;" vertex="1" parent="rzbahE_k7BbH063DakpK-39">
          <mxGeometry width="260" height="30" relative="1" as="geometry">
            <mxPoint x="45" y="170" as="offset" />
          </mxGeometry>
        </mxCell>
        <mxCell id="rzbahE_k7BbH063DakpK-35" value="Submit" style="rounded=1;fillColor=#0057D8;strokeColor=none;html=1;whiteSpace=wrap;fontColor=#ffffff;align=center;verticalAlign=middle;fontStyle=0;fontSize=12;sketch=0;" vertex="1" parent="rzbahE_k7BbH063DakpK-39">
          <mxGeometry x="219" y="230" width="86" height="33" as="geometry" />
        </mxCell>
        <mxCell id="rzbahE_k7BbH063DakpK-36" value="FORM ADMIN TAMBAH PEKERJAAN" style="text;html=1;align=center;verticalAlign=middle;whiteSpace=wrap;rounded=0;" vertex="1" parent="rzbahE_k7BbH063DakpK-39">
          <mxGeometry x="15" y="10" width="225" height="31.76" as="geometry" />
        </mxCell>
      </root>
    </mxGraphModel>
  </diagram>
</mxfile>
